<svg xmlns="http://www.w3.org/2000/svg" width="80" height="80" viewBox="170 -4 80 80" fill="none">
<path d="M229.164 52.5723L237.192 51.4248H237.196C234.322 56.2499 230.211 60.4309 225.001 63.4385C210.099 72.0407 191.392 68.082 181.142 54.8447L184.023 47.667L192.307 48.8105C192.322 48.8274 192.339 48.8425 192.354 48.8594C192.753 49.2821 193.17 49.6856 193.599 50.0703C193.601 50.0724 193.603 50.077 193.607 50.0791C193.611 50.0812 193.614 50.0829 193.616 50.085C193.618 50.0871 193.622 50.0897 193.625 50.0918C195.125 51.4317 196.791 52.5412 198.566 53.4014C198.57 53.4035 198.576 53.4081 198.583 53.4102C198.608 53.4228 198.635 53.4336 198.661 53.4463C198.811 53.5181 198.963 53.5896 199.115 53.6572C199.222 53.7058 199.33 53.7543 199.438 53.8008C199.482 53.8198 199.529 53.8394 199.574 53.8584C202.129 54.9468 204.807 55.502 207.467 55.5654C207.507 55.5675 207.548 55.5684 207.588 55.5684C207.721 55.5726 207.852 55.5723 207.983 55.5723C208.118 55.5723 208.252 55.5705 208.387 55.5684C208.446 55.5663 208.506 55.5654 208.565 55.5654C208.791 55.5591 209.017 55.5488 209.243 55.5361C209.255 55.534 209.268 55.5342 209.281 55.5342C211.515 55.4031 213.753 54.9232 215.911 54.0693C215.917 54.0672 215.924 54.0656 215.93 54.0635C216.038 54.0212 216.146 53.9789 216.251 53.9346C216.256 53.9325 216.258 53.9297 216.262 53.9297C216.271 53.9275 216.281 53.9231 216.29 53.9189C216.346 53.8937 216.404 53.871 216.46 53.8457C218.908 52.8037 221.176 51.3094 223.123 49.3945C223.196 49.3249 223.266 49.2505 223.337 49.1787L223.513 49.0029C223.541 48.9755 223.568 48.9456 223.595 48.916C223.705 48.802 223.813 48.6884 223.918 48.5723C223.99 48.492 224.064 48.4114 224.136 48.3291C224.221 48.234 224.304 48.1361 224.386 48.041C224.405 48.0179 224.427 47.995 224.448 47.9697C224.541 47.8599 224.631 47.7495 224.722 47.6396C224.733 47.627 224.743 47.6142 224.753 47.6016C224.855 47.479 224.955 47.3544 225.052 47.2275L225.056 47.2236C225.276 46.9425 225.487 46.6549 225.69 46.3633C225.893 46.0716 226.09 45.7757 226.278 45.4756L229.164 52.5723Z" fill="url(#paint0_linear_30_17)"/>
<path d="M208.152 6.39355L203.019 12.9961C202.996 13.0003 202.974 13.0094 202.953 13.0137C202.387 13.1489 201.829 13.3068 201.282 13.4863C201.278 13.4884 201.273 13.4911 201.269 13.4912L201.248 13.499C199.337 14.1289 197.544 15.0165 195.911 16.124C195.904 16.1282 195.9 16.1306 195.894 16.1348C195.869 16.1517 195.845 16.1686 195.822 16.1855C195.684 16.2806 195.548 16.3765 195.413 16.4736C195.317 16.5413 195.222 16.6109 195.126 16.6807C195.089 16.7101 195.048 16.7401 195.01 16.7695C192.789 18.4413 190.968 20.481 189.583 22.7529C189.562 22.7867 189.541 22.8227 189.52 22.8564C189.452 22.9705 189.384 23.0822 189.319 23.1963C189.251 23.3124 189.186 23.4287 189.121 23.5469C189.093 23.5975 189.061 23.6485 189.034 23.7012C188.926 23.8997 188.821 24.1009 188.719 24.3037C188.713 24.3143 188.708 24.3273 188.702 24.3379C187.698 26.3373 186.996 28.5163 186.656 30.8115C186.654 30.8179 186.654 30.8247 186.654 30.8311C186.637 30.945 186.62 31.0589 186.605 31.1729V31.1836C186.603 31.194 186.601 31.2025 186.601 31.2129C186.595 31.2742 186.588 31.3381 186.58 31.3994C186.256 34.037 186.417 36.7486 187.102 39.3926C187.127 39.4898 187.155 39.5893 187.182 39.6865C187.201 39.7541 187.218 39.824 187.237 39.8916C187.241 39.9022 187.243 39.9152 187.248 39.9258C187.258 39.9636 187.271 40.0013 187.282 40.0391C187.324 40.1912 187.37 40.3421 187.417 40.4922C187.45 40.5957 187.484 40.6992 187.518 40.8027C187.558 40.9232 187.599 41.0438 187.641 41.1621C187.652 41.1937 187.662 41.2234 187.672 41.2529C187.721 41.386 187.77 41.5212 187.821 41.6543C187.825 41.6691 187.831 41.6864 187.837 41.7012C187.894 41.8511 187.952 41.9987 188.013 42.1465C188.015 42.1486 188.015 42.1533 188.015 42.1533C188.15 42.483 188.294 42.8107 188.444 43.1318C188.596 43.4541 188.753 43.7702 188.917 44.082L181.328 43.0342L178.305 50.5605V50.5654C175.564 45.6641 174.001 40.0122 174 33.9971C174 16.7884 186.783 2.56801 203.372 0.308594L208.152 6.39355Z" fill="url(#paint1_linear_30_17)"/>
<path d="M208.499 0C214.114 0.0760872 219.789 1.54719 224.999 4.55469L224.995 4.55273C239.897 13.155 245.821 31.3363 239.485 46.833L231.83 47.9277L228.678 40.1807C228.684 40.1597 228.69 40.1391 228.696 40.1182C228.861 39.5603 229.002 38.9978 229.121 38.4336C229.123 38.4295 229.123 38.425 229.123 38.4209C229.125 38.4167 229.125 38.4142 229.125 38.4102V38.3994C229.534 36.4297 229.662 34.4324 229.52 32.4648V32.4453C229.518 32.4158 229.513 32.388 229.511 32.3584C229.499 32.1917 229.483 32.0271 229.466 31.8604C229.454 31.7441 229.442 31.625 229.429 31.5088C229.423 31.4603 229.416 31.4118 229.41 31.3633C229.074 28.6051 228.217 26.0074 226.941 23.6719C226.922 23.6361 226.903 23.6022 226.884 23.5664C226.819 23.4502 226.755 23.3358 226.69 23.2217C226.622 23.1033 226.555 22.9893 226.485 22.873C226.455 22.8223 226.426 22.7714 226.394 22.7207C226.278 22.5284 226.154 22.3386 226.03 22.1484C226.023 22.1379 226.016 22.1268 226.009 22.1162C224.779 20.2458 223.243 18.5509 221.425 17.1074C221.421 17.1033 221.415 17.0989 221.411 17.0947C221.32 17.0229 221.228 16.9506 221.137 16.8809L221.106 16.8574C221.055 16.8194 221.006 16.7841 220.956 16.7461C218.832 15.1461 216.403 13.9304 213.772 13.2012C213.675 13.1737 213.575 13.1484 213.478 13.123C213.41 13.104 213.343 13.0852 213.273 13.0684C213.263 13.0662 213.25 13.0617 213.24 13.0596C213.202 13.0511 213.161 13.0407 213.124 13.0322C212.971 12.9942 212.817 12.9586 212.665 12.9248C212.559 12.9016 212.451 12.8776 212.345 12.8564C212.223 12.8311 212.098 12.8084 211.973 12.7852C211.944 12.7809 211.912 12.7749 211.88 12.7686C211.739 12.7432 211.599 12.7195 211.458 12.6963C211.443 12.6942 211.426 12.6896 211.409 12.6875C211.25 12.6622 211.094 12.6393 210.936 12.6182H210.929C210.576 12.5696 210.224 12.5296 209.869 12.5C209.514 12.4683 209.158 12.4473 208.805 12.4346L213.51 6.38281L208.499 0.00390625V0Z" fill="url(#paint2_linear_30_17)"/>
<path d="M188.919 44.083V44.085L188.917 44.082L188.919 44.083Z" fill="url(#paint3_linear_30_17)"/>
<defs>
<linearGradient id="paint0_linear_30_17" x1="208.001" y1="0" x2="208.001" y2="67.9984" gradientUnits="userSpaceOnUse">
<stop stop-color="#46D1D2"/>
<stop offset="0.5" stop-color="#569DB0"/>
<stop offset="1" stop-color="#31616E"/>
</linearGradient>
<linearGradient id="paint1_linear_30_17" x1="208.001" y1="0" x2="208.001" y2="67.9984" gradientUnits="userSpaceOnUse">
<stop stop-color="#46D1D2"/>
<stop offset="0.5" stop-color="#569DB0"/>
<stop offset="1" stop-color="#31616E"/>
</linearGradient>
<linearGradient id="paint2_linear_30_17" x1="208.001" y1="0" x2="208.001" y2="67.9984" gradientUnits="userSpaceOnUse">
<stop stop-color="#46D1D2"/>
<stop offset="0.5" stop-color="#569DB0"/>
<stop offset="1" stop-color="#31616E"/>
</linearGradient>
<linearGradient id="paint3_linear_30_17" x1="208.001" y1="0" x2="208.001" y2="67.9984" gradientUnits="userSpaceOnUse">
<stop stop-color="#46D1D2"/>
<stop offset="0.5" stop-color="#569DB0"/>
<stop offset="1" stop-color="#31616E"/>
</linearGradient>
</defs>
</svg>
